<?xml version="1.0" encoding="UTF-8"?>
<svg xmlns="http://www.w3.org/2000/svg" version="1.1" viewBox="0 0 604.7 138.7">
  <defs>
    <style>
      .cls-1 {
        fill: #fff;
      }
    </style>
  </defs>
  <!-- Generator: Adobe Illustrator 28.7.1, SVG Export Plug-In . SVG Version: 1.2.0 Build 142)  -->
  <g>
    <g id="Layer_1">
      <g>
        <path class="cls-1" d="M90.3,42.4h-35.8v68h-16.4V42.4H2.2v-14.2h88.2v14.2Z"/>
        <path class="cls-1" d="M111.5,70V28.2h16.3v41.9c0,20.6,11.2,27.8,28.2,27.8s27.4-7.2,27.4-27.8V28.2h16.4v41.8c0,29.9-16.2,42.5-43.8,42.5s-44.5-12.6-44.5-42.5Z"/>
        <path class="cls-1" d="M277.6,82.9h-31.1v27.5h-15.8V28.2h52.4c20.6,0,31.9,6.8,31.9,26.5s-7,23.4-20,26.9l22.9,28.8h-19.1l-21.3-27.5ZM246.5,69.1h35.3c10.2,0,16.9-4.5,16.9-14.4s-6.7-12.3-16.9-12.3h-35.3v26.7Z"/>
        <path class="cls-1" d="M342.2,28.2h16.2v82.2h-16.2V28.2Z"/>
        <path class="cls-1" d="M478.7,28.2v82.2h-16.2l-53.8-60.1v60.1h-16V28.2h16.2l53.8,60V28.2h16Z"/>
        <path class="cls-1" d="M602.6,66v33.9c-9.7,8.1-25.4,12.6-46.2,12.6-31.2,0-49-12.6-49-40.9v-4.6c0-28.2,17.9-40.8,48.7-40.8s33.5,4.3,45.9,16.4l-10.3,12.5c-8-9.4-19.6-14.3-35.6-14.3s-32.3,7.1-32.3,26.1v4.9c0,19,13.3,26.3,34.8,26.3s23.1-3.1,27.7-6.5v-13.1h-41.3v-12.5h57.6Z"/>
      </g>
    </g>
  </g>
</svg>